<svg width="40" height="40" viewBox="0 0 40 40" fill="none" xmlns="http://www.w3.org/2000/svg">
<rect width="40" height="40" rx="20" fill="url(#paint0_linear_0_828)"/>
<mask id="mask0_0_828" style="mask-type:luminance" maskUnits="userSpaceOnUse" x="0" y="0" width="40" height="40">
<rect width="40" height="40" rx="20" fill="white"/>
</mask>
<g mask="url(#mask0_0_828)">
<path fill-rule="evenodd" clip-rule="evenodd" d="M-2.22396 31.5629C-2.48438 31.8543 -2.8099 32 -3.20052 32H-4.63281C-5.02344 32 -5.34896 31.8543 -5.60938 31.5629C-5.86979 31.2714 -6 30.924 -6 30.5205V19.0877L-3.13542 10.4795C-2.8316 9.49318 -2.15885 9 -1.11719 9H14.1172C15.1589 9 15.8316 9.49318 16.1354 10.4795L19 19.0877V30.5205C19 30.924 18.8698 31.2714 18.6094 31.5629C18.349 31.8543 18.0234 32 17.6328 32H16.2005C15.8099 32 15.4844 31.8543 15.224 31.5629C14.9635 31.2714 14.8333 30.924 14.8333 30.5205V29.1082H-1.83333V30.5205C-1.83333 30.924 -1.96354 31.2714 -2.22396 31.5629ZM-4 18H15L12.9597 11H-1.95973L-4 18ZM14 25C13.4583 25 12.9792 24.8125 12.5625 24.4375C12.1875 24.0625 12 23.5833 12 23C12 22.4167 12.1979 21.9375 12.5938 21.5625C12.9896 21.1875 13.4583 21 14 21C14.5417 21 15.0104 21.1875 15.4062 21.5625C15.8021 21.9375 16 22.4167 16 23C16 23.5833 15.8021 24.0625 15.4062 24.4375C15.0104 24.8125 14.5417 25 14 25ZM-3.4375 24.4375C-3.02083 24.8125 -2.54167 25 -2 25C-1.45833 25 -0.989583 24.8125 -0.59375 24.4375C-0.197917 24.0625 0 23.5833 0 23C0 22.4167 -0.197917 21.9375 -0.59375 21.5625C-0.989583 21.1875 -1.45833 21 -2 21C-2.54167 21 -3.01042 21.1875 -3.40625 21.5625C-3.80208 21.9375 -4 22.4167 -4 23C-4 23.5833 -3.8125 24.0625 -3.4375 24.4375Z" fill="white"/>
</g>
<defs>
<linearGradient id="paint0_linear_0_828" x1="40" y1="40" x2="40" y2="0" gradientUnits="userSpaceOnUse">
<stop stop-color="#5A4AB3"/>
<stop offset="1" stop-color="#7963F0"/>
</linearGradient>
</defs>
</svg>
